HIERARCHY
ROOT Hips
{
  OFFSET 0.0000 94.0000 0.0000
  CHANNELS 6 Xposition Yposition Zposition Yrotation Xrotation Zrotation
  JOINT Spine
  {
    OFFSET 0.0000 12.9947 0.0000
    CHANNELS 3 Yrotation Xrotation Zrotation
    JOINT Spine1
    {
      OFFSET 12.7099 0.0000 0.0000
      CHANNELS 3 Yrotation Xrotation Zrotation
      JOINT Spine2
      {
        OFFSET 12.7829 0.0000 0.0000
        CHANNELS 3 Yrotation Xrotation Zrotation
        JOINT LeftShoulder
        {
          OFFSET 10.4351 -7.0401 1.9147
          CHANNELS 3 Yrotation Xrotation Zrotation
          JOINT LeftArm
          {
            OFFSET 13.4599 0.0000 0.0000
            CHANNELS 3 Yrotation Xrotation Zrotation
            JOINT LeftForeArm
            {
              OFFSET 26.1001 0.0000 0.0001
              CHANNELS 3 Yrotation Xrotation Zrotation
              JOINT LeftHand
              {
                OFFSET 28.9001 0.0000 0.0000
                CHANNELS 3 Yrotation Xrotation Zrotation
                JOINT LeftInHandIndex
                {
                  OFFSET 2.6469 -0.1030 1.6042
                  CHANNELS 3 Yrotation Xrotation Zrotation
                  JOINT LeftHandIndex1
                  {
                    OFFSET 5.4270 0.0000 0.9569
                    CHANNELS 3 Yrotation Xrotation Zrotation
                    JOINT LeftHandIndex2
                    {
                      OFFSET 4.5806 0.0000 0.0000
                      CHANNELS 3 Yrotation Xrotation Zrotation
                      JOINT LeftHandIndex3
                      {
                        OFFSET 2.8181 -0.0001 0.0000
                        CHANNELS 3 Yrotation Xrotation Zrotation
                        End Site
                        {
                          OFFSET 1.4090 0.0000 0.0000
                        }
                      }
                    }
                  }
                }
                JOINT LeftInHandMiddle
                {
                  OFFSET 2.7689 -0.1030 0.5450
                  CHANNELS 3 Yrotation Xrotation Zrotation
                  JOINT LeftHandMiddle1
                  {
                    OFFSET 5.3677 0.0000 0.0000
                    CHANNELS 3 Yrotation Xrotation Zrotation
                    JOINT LeftHandMiddle2
                    {
                      OFFSET 4.7024 0.0000 0.0000
                      CHANNELS 3 Yrotation Xrotation Zrotation
                      JOINT LeftHandMiddle3
                      {
                        OFFSET 3.1016 0.0000 0.0000
                        CHANNELS 3 Yrotation Xrotation Zrotation
                        End Site
                        {
                          OFFSET 1.5508 0.0000 0.0000
                        }
                      }
                    }
                  }
                }
                JOINT LeftInHandPinky
                {
                  OFFSET 2.4891 -0.1030 -1.4884
                  CHANNELS 3 Yrotation Xrotation Zrotation
                  JOINT LeftHandPinky1
                  {
                    OFFSET 4.5290 0.0000 -1.6484
                    CHANNELS 3 Yrotation Xrotation Zrotation
                    JOINT LeftHandPinky2
                    {
                      OFFSET 3.5541 0.0000 0.0000
                      CHANNELS 3 Yrotation Xrotation Zrotation
                      JOINT LeftHandPinky3
                      {
                        OFFSET 2.2340 0.0000 0.0000
                        CHANNELS 3 Yrotation Xrotation Zrotation
                        End Site
                        {
                          OFFSET 1.1170 0.0000 0.0000
                        }
                      }
                    }
                  }
                }
                JOINT LeftInHandRing
                {
                  OFFSET 2.7444 -0.1030 -0.5478
                  CHANNELS 3 Yrotation Xrotation Zrotation
                  JOINT LeftHandRing1
                  {
                    OFFSET 5.0624 0.0000 -0.8927
                    CHANNELS 3 Yrotation Xrotation Zrotation
                    JOINT LeftHandRing2
                    {
                      OFFSET 4.3923 0.0000 0.0000
                      CHANNELS 3 Yrotation Xrotation Zrotation
                      JOINT LeftHandRing3
                      {
                        OFFSET 2.8327 -0.0001 0.0000
                        CHANNELS 3 Yrotation Xrotation Zrotation
                        End Site
                        {
                          OFFSET 1.4163 0.0000 0.0000
                        }
                      }
                    }
                  }
                }
                JOINT LeftHandThumb1
                {
                  OFFSET 2.0791 -0.0946 2.7863
                  CHANNELS 3 Yrotation Xrotation Zrotation
                  JOINT LeftHandThumb2
                  {
                    OFFSET 3.9619 0.0000 0.0000
                    CHANNELS 3 Yrotation Xrotation Zrotation
                    JOINT LeftHandThumb3
                    {
                      OFFSET 3.0072 0.0000 0.0000
                      CHANNELS 3 Yrotation Xrotation Zrotation
                      End Site
                      {
                        OFFSET 1.7295 0.0000 0.0000
                      }
                    }
                  }
                }
              }
            }
          }
        }
        JOINT Neck
        {
          OFFSET 18.2093 0.0000 0.0000
          CHANNELS 3 Yrotation Xrotation Zrotation
          JOINT Head
          {
            OFFSET 11.0335 0.0000 0.0000
            CHANNELS 3 Yrotation Xrotation Zrotation
            End Site
            {
              OFFSET 22.0670 0.0000 0.0000
            }
          }
        }
        JOINT RightShoulder
        {
          OFFSET 10.4351 7.0401 1.9147
          CHANNELS 3 Yrotation Xrotation Zrotation
          JOINT RightArm
          {
            OFFSET 13.4599 0.0001 0.0000
            CHANNELS 3 Yrotation Xrotation Zrotation
            JOINT RightForeArm
            {
              OFFSET 26.1001 0.0001 0.0000
              CHANNELS 3 Yrotation Xrotation Zrotation
              JOINT RightHand
              {
                OFFSET 28.9001 0.0001 0.0001
                CHANNELS 3 Yrotation Xrotation Zrotation
                JOINT RightInHandIndex
                {
                  OFFSET 2.6470 -0.1029 -1.6042
                  CHANNELS 3 Yrotation Xrotation Zrotation
                  JOINT RightHandIndex1
                  {
                    OFFSET 5.4271 0.0001 -0.9569
                    CHANNELS 3 Yrotation Xrotation Zrotation
                    JOINT RightHandIndex2
                    {
                      OFFSET 4.5805 0.0001 0.0000
                      CHANNELS 3 Yrotation Xrotation Zrotation
                      JOINT RightHandIndex3
                      {
                        OFFSET 2.8181 0.0001 0.0000
                        CHANNELS 3 Yrotation Xrotation Zrotation
                        End Site
                        {
                          OFFSET 1.4091 0.0000 0.0000
                        }
                      }
                    }
                  }
                }
                JOINT RightInHandMiddle
                {
                  OFFSET 2.7689 -0.1029 -0.5450
                  CHANNELS 3 Yrotation Xrotation Zrotation
                  JOINT RightHandMiddle1
                  {
                    OFFSET 5.3677 0.0001 0.0000
                    CHANNELS 3 Yrotation Xrotation Zrotation
                    JOINT RightHandMiddle2
                    {
                      OFFSET 4.7024 0.0001 0.0000
                      CHANNELS 3 Yrotation Xrotation Zrotation
                      JOINT RightHandMiddle3
                      {
                        OFFSET 3.1016 0.0001 0.0000
                        CHANNELS 3 Yrotation Xrotation Zrotation
                        End Site
                        {
                          OFFSET 1.5508 0.0001 0.0000
                        }
                      }
                    }
                  }
                }
                JOINT RightInHandPinky
                {
                  OFFSET 2.4892 -0.1029 1.4884
                  CHANNELS 3 Yrotation Xrotation Zrotation
                  JOINT RightHandPinky1
                  {
                    OFFSET 4.5290 0.0002 1.6484
                    CHANNELS 3 Yrotation Xrotation Zrotation
                    JOINT RightHandPinky2
                    {
                      OFFSET 3.5541 0.0000 0.0000
                      CHANNELS 3 Yrotation Xrotation Zrotation
                      JOINT RightHandPinky3
                      {
                        OFFSET 2.2340 0.0001 0.0000
                        CHANNELS 3 Yrotation Xrotation Zrotation
                        End Site
                        {
                          OFFSET 1.1170 0.0001 0.0000
                        }
                      }
                    }
                  }
                }
                JOINT RightInHandRing
                {
                  OFFSET 2.7444 -0.1029 0.5478
                  CHANNELS 3 Yrotation Xrotation Zrotation
                  JOINT RightHandRing1
                  {
                    OFFSET 5.0624 0.0002 0.8927
                    CHANNELS 3 Yrotation Xrotation Zrotation
                    JOINT RightHandRing2
                    {
                      OFFSET 4.3922 0.0001 0.0000
                      CHANNELS 3 Yrotation Xrotation Zrotation
                      JOINT RightHandRing3
                      {
                        OFFSET 2.8327 0.0001 0.0000
                        CHANNELS 3 Yrotation Xrotation Zrotation
                        End Site
                        {
                          OFFSET 1.4163 0.0000 0.0000
                        }
                      }
                    }
                  }
                }
                JOINT RightHandThumb1
                {
                  OFFSET 2.0791 -0.0945 -2.7863
                  CHANNELS 3 Yrotation Xrotation Zrotation
                  JOINT RightHandThumb2
                  {
                    OFFSET 3.9619 0.0001 0.0000
                    CHANNELS 3 Yrotation Xrotation Zrotation
                    JOINT RightHandThumb3
                    {
                      OFFSET 3.0072 0.0001 0.0000
                      CHANNELS 3 Yrotation Xrotation Zrotation
                      End Site
                      {
                        OFFSET 1.7295 0.0000 0.0000
                      }
                    }
                  }
                }
              }
            }
          }
        }
      }
    }
  }
  JOINT LeftUpLeg
  {
    OFFSET 8.1000 0.0000 0.0000
    CHANNELS 3 Yrotation Xrotation Zrotation
    JOINT LeftLeg
    {
      OFFSET 43.2000 0.0000 0.0000
      CHANNELS 3 Yrotation Xrotation Zrotation
      JOINT LeftFoot
      {
        OFFSET 43.3000 0.0000 0.0000
        CHANNELS 3 Yrotation Xrotation Zrotation
        JOINT LeftToeBase
        {
          OFFSET 14.5727 0.0000 0.0000
          CHANNELS 3 Yrotation Xrotation Zrotation
          End Site
          {
            OFFSET 7.2863 0.0000 0.0000
          }
        }
      }
    }
  }
  JOINT RightUpLeg
  {
    OFFSET -8.1000 0.0000 0.0000
    CHANNELS 3 Yrotation Xrotation Zrotation
    JOINT RightLeg
    {
      OFFSET 43.2000 0.0000 0.0000
      CHANNELS 3 Yrotation Xrotation Zrotation
      JOINT RightFoot
      {
        OFFSET 43.3000 -0.0626 0.0000
        CHANNELS 3 Yrotation Xrotation Zrotation
        JOINT RightToeBase
        {
          OFFSET 14.5727 0.0000 0.0000
          CHANNELS 3 Yrotation Xrotation Zrotation
          End Site
          {
            OFFSET 7.2864 0.0000 0.0000
          }
        }
      }
    }
  }
}
MOTION
Frames: 7
Frame Time: 0.003000
-20.0392 105.5986 -162.4842 34.1801 12.4067 20.6749 0.0000 0.0000 90.0000 0.0000 0.0000 0.0000 0.0000 -33.9975 0.0000 0.0000 0.0000 -90.0000 -59.2893 9.3503 -70.8063 -21.7020 -1.1345 -5.8604 0.0000 0.0000 0.0000 0.0024 1.2310 0.2171 -8.2881 0.5561 -17.9917 0.0007 0.0002 -17.9988 -0.0008 0.0000 -18.0016 0.0000 0.0000 0.0000 -5.1372 -1.6664 -17.9253 -0.0001 0.0000 -18.0000 -0.0034 -0.0010 -18.0000 0.5905 -5.8773 -5.1793 11.2007 -13.4477 -16.1482 -0.0001 -0.0003 -18.0000 0.0000 0.0000 -17.9993 0.1281 -2.7201 -2.5537 1.3567 -8.1103 -16.9813 0.0001 0.0000 -17.9990 -0.0035 -0.0011 -18.0010 -51.5735 53.9498 -31.5005 6.3507 0.3529 -6.3509 6.3509 0.3526 -6.3510 0.0000 0.0000 0.0000 27.8779 17.3793 -101.5627 180.0000 0.0000 89.9999 68.5816 -4.9554 -58.9240 27.9662 0.0000 0.0000 0.0000 0.0000 0.0000 -0.0024 -1.2310 0.2172 8.2881 -0.5563 -17.9918 -0.0003 -0.0001 -17.9993 178.0982 0.6179 17.9904 -0.0001 0.0000 0.0001 5.1372 1.6664 -17.9253 0.0000 0.0000 -18.0000 178.0978 0.6179 17.9897 -0.5906 5.8773 -5.1799 -11.2007 13.4479 -16.1470 -0.0002 -0.0001 -17.9992 178.0983 0.6180 17.9922 -0.1281 2.7201 -2.5536 -1.3567 8.1101 -16.9812 0.0000 0.0000 -17.9993 178.0978 0.6179 17.9904 51.5729 -53.9500 -31.5000 -6.3505 -0.3528 -6.3507 -6.3510 -0.3527 -6.3510 -90.5644 -62.1087 36.4222 78.5963 0.0000 0.0826 295.2681 90.0000 0.0000 6.0271 -2.3770 21.4457 -40.2492 -29.0071 -93.5188 41.7571 0.0000 0.0000 295.3508 90.0000 0.0000 0.6260 -0.2698 23.3135
-19.9124 106.7787 -162.7132 33.8984 11.9327 20.1980 0.0000 0.0000 90.0000 0.0000 0.0000 0.0000 0.0000 -34.1673 0.0000 0.0000 0.0000 -90.0000 -69.1434 14.1047 -74.0993 -24.2017 -0.3942 -1.8182 0.0000 0.0000 0.0000 0.0024 1.2310 0.2171 -8.2881 0.5560 -17.9917 0.0007 0.0003 -17.9988 -0.0008 0.0000 -18.0016 0.0000 0.0000 0.0000 -5.1372 -1.6664 -17.9253 0.0000 0.0000 -18.0001 -0.0035 -0.0010 -18.0000 0.5905 -5.8773 -5.1793 11.2007 -13.4477 -16.1482 -0.0001 -0.0003 -18.0000 0.0000 0.0000 -17.9993 0.1281 -2.7201 -2.5536 1.3567 -8.1103 -16.9813 0.0000 0.0000 -17.9990 -0.0035 -0.0011 -18.0010 -51.5734 53.9498 -31.5004 6.3507 0.3529 -6.3509 6.3509 0.3526 -6.3510 0.0000 0.0000 0.0000 27.2057 17.4633 -101.4115 180.0000 0.0000 89.9999 69.1287 -6.9831 -59.8946 30.7660 -0.0001 0.0000 0.0000 0.0000 0.0000 -0.0024 -1.2310 0.2172 8.2881 -0.5562 -17.9918 -0.0003 -0.0001 -17.9993 178.0982 0.6179 17.9904 -0.0001 0.0000 0.0001 5.1372 1.6664 -17.9253 0.0000 0.0000 -18.0000 178.0978 0.6179 17.9897 -0.5906 5.8773 -5.1799 -11.2007 13.4479 -16.1469 -0.0002 -0.0001 -17.9992 178.0983 0.6180 17.9922 -0.1281 2.7201 -2.5536 -1.3567 8.1101 -16.9812 0.0000 0.0000 -17.9993 178.0978 0.6179 17.9904 51.5729 -53.9501 -31.5001 -6.3505 -0.3527 -6.3507 -6.3509 -0.3527 -6.3509 -91.1801 -62.5852 35.5378 84.4826 0.0000 0.0826 295.2681 90.0000 0.0000 6.0150 -2.4240 21.8706 -40.1079 -27.8829 -93.6792 40.8438 0.0000 0.0000 295.3508 90.0000 0.0000 0.6050 -0.2614 23.3689
-19.7930 108.0812 -162.9472 33.6242 11.4560 19.7267 0.0000 0.0000 90.0000 0.0000 0.0000 0.0000 0.0000 -34.3323 0.0000 0.0000 0.0000 -90.0000 -72.9024 16.5481 -76.5802 -26.0236 0.0000 0.0000 0.0000 0.0000 0.0000 0.0024 1.2310 0.2171 -8.2881 0.5560 -17.9917 0.0007 0.0003 -17.9988 -0.0008 0.0000 -18.0016 0.0000 -0.0001 0.0000 -5.1372 -1.6664 -17.9253 0.0000 0.0000 -18.0001 -0.0035 -0.0010 -18.0000 0.5905 -5.8773 -5.1793 11.2007 -13.4477 -16.1482 -0.0001 -0.0003 -18.0000 0.0000 0.0000 -17.9993 0.1281 -2.7201 -2.5537 1.3567 -8.1103 -16.9813 0.0001 0.0000 -17.9990 -0.0035 -0.0011 -18.0010 -51.5734 53.9498 -31.5004 6.3507 0.3529 -6.3509 6.3509 0.3527 -6.3510 0.0000 0.0000 0.0000 26.5320 17.5439 -101.2694 180.0000 0.0000 89.9999 69.5965 -8.9582 -60.8946 33.6245 0.0000 0.0000 0.0000 0.0000 0.0000 -0.0024 -1.2310 0.2172 8.2881 -0.5563 -17.9918 -0.0003 -0.0001 -17.9993 178.0982 0.6179 17.9904 -0.0001 0.0000 0.0001 5.1372 1.6664 -17.9253 0.0000 0.0000 -18.0000 178.0978 0.6179 17.9897 -0.5906 5.8773 -5.1799 -11.2007 13.4479 -16.1470 -0.0002 -0.0001 -17.9992 178.0983 0.6180 17.9922 -0.1281 2.7201 -2.5536 -1.3567 8.1101 -16.9812 0.0000 0.0000 -17.9993 178.0978 0.6179 17.9904 51.5729 -53.9501 -31.5001 -6.3505 -0.3528 -6.3507 -6.3509 -0.3527 -6.3509 -91.9365 -63.3226 34.8168 90.2915 0.0000 0.0826 295.2694 90.0000 0.0000 5.9787 -2.4551 22.2461 -39.9660 -26.7663 -93.8370 39.9335 0.0000 0.0000 295.3507 90.0000 0.0000 0.5846 -0.2533 23.4238
-19.7113 109.7778 -163.1842 33.1965 10.9375 19.0945 0.0000 0.0000 90.0000 0.0000 0.0000 0.0000 0.0000 -34.4466 0.0000 0.0000 0.0000 -90.0000 -72.5763 18.1830 -78.0314 -28.3495 0.0000 0.0000 0.0000 0.0000 0.0000 0.0024 1.2310 0.2171 -8.2881 0.5560 -17.9917 0.0007 0.0002 -17.9988 -0.0008 0.0000 -18.0016 0.0000 0.0000 0.0000 -5.1372 -1.6664 -17.9253 0.0000 0.0000 -18.0001 -0.0034 -0.0010 -18.0000 0.5905 -5.8773 -5.1793 11.2007 -13.4477 -16.1482 -0.0001 -0.0003 -18.0000 0.0000 0.0000 -17.9993 0.1281 -2.7201 -2.5536 1.3567 -8.1103 -16.9813 0.0001 0.0001 -17.9990 -0.0035 -0.0011 -18.0010 -51.5735 53.9499 -31.5005 6.3507 0.3529 -6.3509 6.3509 0.3527 -6.3510 0.0000 0.0000 0.0000 25.7390 17.6350 -101.0400 180.0000 0.0000 89.9999 70.0658 -11.0355 -61.9686 36.9248 0.0000 0.0000 0.0000 0.0000 0.0000 -0.0024 -1.2310 0.2172 8.2881 -0.5563 -17.9918 -0.0003 -0.0001 -17.9993 178.0982 0.6179 17.9904 -0.0001 0.0000 0.0001 5.1372 1.6664 -17.9253 0.0000 0.0000 -18.0000 178.0978 0.6179 17.9897 -0.5906 5.8773 -5.1799 -11.2007 13.4479 -16.1470 -0.0002 -0.0001 -17.9992 178.0983 0.6180 17.9922 -0.1281 2.7201 -2.5536 -1.3567 8.1101 -16.9812 0.0000 0.0000 -17.9993 178.0978 0.6179 17.9904 51.5729 -53.9501 -31.5001 -6.3505 -0.3527 -6.3507 -6.3509 -0.3527 -6.3510 -91.9243 -64.4447 33.1014 96.1659 0.0000 0.0826 295.2681 90.0000 0.0000 5.9337 -2.4756 22.5677 -40.0258 -25.6072 -93.9312 39.2048 0.0000 0.0000 295.3508 90.0000 0.0000 0.5474 -0.2376 23.4673
-19.6823 111.9795 -163.4240 32.6227 10.3714 18.3104 0.0000 0.0000 90.0000 0.0000 0.0000 0.0000 0.0000 -34.5103 0.0000 0.0000 0.0000 -90.0000 -72.5538 20.1520 -79.5879 -31.2846 0.0000 0.0000 0.0000 0.0000 0.0000 0.0024 1.2310 0.2171 -8.2881 0.5560 -17.9917 0.0007 0.0003 -17.9988 -0.0008 0.0000 -18.0016 0.0000 0.0000 0.0000 -5.1372 -1.6664 -17.9253 0.0000 0.0000 -18.0001 -0.0035 -0.0010 -18.0000 0.5905 -5.8773 -5.1793 11.2007 -13.4477 -16.1482 -0.0001 -0.0003 -18.0000 0.0000 0.0000 -17.9993 0.1281 -2.7201 -2.5536 1.3567 -8.1103 -16.9813 0.0001 0.0001 -17.9990 -0.0035 -0.0011 -18.0010 -51.5735 53.9499 -31.5005 6.3507 0.3529 -6.3509 6.3509 0.3527 -6.3510 0.0000 0.0000 0.0000 24.8270 17.7371 -100.7306 180.0000 0.0000 89.9999 70.5386 -13.2317 -63.1060 40.6911 0.0000 0.0000 0.0000 0.0000 0.0000 -0.0024 -1.2310 0.2172 8.2881 -0.5563 -17.9918 -0.0003 -0.0001 -17.9993 178.0982 0.6179 17.9904 -0.0001 0.0000 0.0001 5.1372 1.6664 -17.9253 0.0000 0.0000 -18.0000 178.0978 0.6179 17.9897 -0.5906 5.8773 -5.1799 -11.2007 13.4479 -16.1470 -0.0002 -0.0001 -17.9992 178.0983 0.6180 17.9922 -0.1281 2.7201 -2.5536 -1.3567 8.1101 -16.9812 0.0000 0.0000 -17.9993 178.0978 0.6179 17.9904 51.5729 -53.9501 -31.5001 -6.3505 -0.3528 -6.3507 -6.3509 -0.3527 -6.3510 -91.0651 -66.0799 30.3739 101.9748 0.0001 0.0826 295.2681 90.0000 0.0000 5.8516 -2.4705 22.8112 -40.2950 -24.4098 -93.9780 38.6584 0.0000 0.0000 295.3507 90.0000 0.0000 0.4929 -0.2143 23.4995
-19.7447 113.8688 -163.6684 32.0669 9.7962 17.5446 0.0000 0.0000 90.0000 0.0000 0.0000 0.0000 0.0000 -34.5698 0.0000 0.0000 0.0000 -90.0000 -72.6091 22.1321 -81.1885 -34.2739 0.0000 0.0000 0.0000 0.0000 0.0000 0.0024 1.2310 0.2171 -8.2881 0.5561 -17.9917 0.0007 0.0002 -17.9988 -0.0008 0.0000 -18.0016 0.0000 -0.0001 0.0000 -5.1372 -1.6664 -17.9253 0.0000 0.0000 -18.0000 -0.0035 -0.0010 -18.0000 0.5905 -5.8773 -5.1793 11.2007 -13.4477 -16.1482 -0.0001 -0.0003 -18.0000 0.0000 0.0000 -17.9993 0.1281 -2.7201 -2.5536 1.3567 -8.1103 -16.9813 0.0001 0.0000 -17.9990 -0.0035 -0.0011 -18.0010 -51.5734 53.9498 -31.5004 6.3507 0.3529 -6.3509 6.3509 0.3527 -6.3510 0.0000 0.0000 0.0000 23.9151 17.8358 -100.4401 180.0000 0.0000 89.9999 70.9796 -15.4263 -64.2545 44.5369 -0.0001 0.0000 0.0000 0.0000 0.0000 -0.0024 -1.2310 0.2172 8.2881 -0.5563 -17.9918 -0.0003 -0.0001 -17.9993 178.0982 0.6179 17.9904 -0.0001 0.0000 0.0001 5.1372 1.6664 -17.9253 0.0000 0.0000 -18.0000 178.0978 0.6179 17.9897 -0.5906 5.8773 -5.1799 -11.2007 13.4479 -16.1470 -0.0002 -0.0001 -17.9992 178.0983 0.6180 17.9922 -0.1281 2.7201 -2.5536 -1.3567 8.1101 -16.9812 0.0000 0.0000 -17.9993 178.0978 0.6179 17.9904 51.5729 -53.9500 -31.5000 -6.3505 -0.3528 -6.3507 -6.3510 -0.3527 -6.3510 -89.9701 -68.2021 27.5060 107.3031 0.0001 0.0826 295.2681 90.0000 0.0000 5.6991 -2.4227 22.9561 -40.5746 -23.2267 -94.0433 38.1152 0.0000 0.0000 295.3508 90.0000 0.0000 0.4386 -0.1910 23.5317
-19.8777 115.5797 -163.9164 31.4883 9.2219 16.7630 0.0000 0.0000 90.0000 0.0000 0.0000 0.0000 0.0000 -34.5942 0.0000 0.0000 0.0000 -90.0000 -72.8309 24.1600 -82.7936 -37.4146 0.0000 0.0000 0.0000 0.0000 0.0000 0.0024 1.2310 0.2171 -8.2881 0.5560 -17.9917 0.0007 0.0003 -17.9988 -0.0008 0.0000 -18.0016 0.0000 -0.0001 0.0000 -5.1372 -1.6664 -17.9253 -0.0001 0.0000 -18.0001 -0.0035 -0.0010 -18.0000 0.5905 -5.8773 -5.1793 11.2007 -13.4477 -16.1482 -0.0001 -0.0003 -18.0000 0.0000 0.0000 -17.9993 0.1281 -2.7201 -2.5536 1.3567 -8.1103 -16.9813 0.0001 0.0001 -17.9990 -0.0035 -0.0011 -18.0010 -51.5735 53.9498 -31.5005 6.3507 0.3529 -6.3509 6.3509 0.3527 -6.3510 0.0000 0.0000 0.0000 22.9968 17.9215 -100.1424 180.0000 0.0000 90.0000 71.3965 -17.5785 -65.3706 48.4354 -0.0001 0.0000 0.0000 0.0000 0.0000 -0.0024 -1.2310 0.2172 8.2881 -0.5563 -17.9918 -0.0003 -0.0001 -17.9993 178.0982 0.6179 17.9904 0.0000 0.0000 0.0001 5.1372 1.6664 -17.9253 0.0000 0.0000 -18.0000 178.0978 0.6179 17.9897 -0.5906 5.8773 -5.1799 -11.2007 13.4479 -16.1470 -0.0002 -0.0001 -17.9992 178.0983 0.6180 17.9922 -0.1281 2.7201 -2.5536 -1.3567 8.1101 -16.9812 0.0000 0.0000 -17.9993 178.0978 0.6179 17.9904 51.5729 -53.9501 -31.5001 -6.3505 -0.3528 -6.3507 -6.3509 -0.3527 -6.3509 -87.8969 -70.7486 23.7585 111.8908 0.0000 0.0826 295.2681 90.0000 0.0000 5.4763 -2.3318 22.9960 -40.9885 -22.1536 -94.1185 37.7798 0.0000 0.0000 295.3508 90.0000 0.0000 0.3745 -0.1632 23.5531
